<?xml version="1.0" standalone="no"?>
<!DOCTYPE svg PUBLIC "-//W3C//DTD SVG 20010904//EN"
 "http://www.w3.org/TR/2001/REC-SVG-20010904/DTD/svg10.dtd">
<svg version="1.0" xmlns="http://www.w3.org/2000/svg"
 width="461.000000pt" height="386.000000pt" viewBox="0 0 461.000000 386.000000"
 preserveAspectRatio="xMidYMid meet">

<g transform="translate(0.000000,386.000000) scale(0.100000,-0.100000)"
fill="#000000" stroke="none">
<path d="M2153 3830 c-101 -51 -156 -130 -169 -243 -6 -47 -11 -58 -28 -62
-12 -3 -138 -21 -281 -41 l-259 -37 -15 24 c-27 41 -77 85 -128 109 -38 19
-65 24 -128 24 -104 1 -166 -26 -233 -99 -79 -86 -101 -193 -63 -305 l19 -54
-178 -186 c-98 -102 -205 -212 -239 -244 l-60 -59 -73 2 c-96 3 -168 -23 -227
-81 -64 -64 -84 -109 -89 -204 -4 -72 -1 -89 20 -136 34 -74 79 -122 144 -154
74 -36 161 -42 237 -17 l57 20 382 -231 382 -231 12 -73 c7 -40 23 -91 38
-116 92 -157 308 -198 464 -88 l27 20 565 -481 565 -480 0 -96 c0 -85 3 -102
27 -147 34 -64 105 -128 165 -148 61 -21 167 -20 229 1 70 24 154 110 177 182
9 29 17 77 17 107 0 53 1 55 380 642 l381 589 59 6 c110 10 200 73 249 177 35
75 36 182 1 255 -56 115 -166 180 -296 173 l-71 -3 -215 373 -214 373 19 57
c48 143 -14 300 -147 370 -45 24 -62 27 -146 27 -101 0 -140 -13 -206 -68
l-29 -25 -335 132 -335 131 -6 71 c-8 81 -31 133 -86 187 -62 62 -105 80 -208
85 -85 3 -94 2 -152 -28z m-132 -422 c6 -13 29 -41 51 -64 l39 -41 -154 -239
c-140 -217 -156 -239 -178 -234 -36 8 -161 6 -191 -2 -25 -8 -31 -1 -123 127
l-96 135 25 33 c36 46 56 110 56 173 0 36 4 54 13 55 9 0 505 72 539 78 4 0
12 -9 19 -21z m879 -122 c300 -118 315 -125 310 -148 -3 -12 -5 -57 -5 -98 0
-58 6 -86 24 -123 28 -58 45 -34 -147 -200 l-133 -115 -51 26 c-38 20 -71 28
-132 32 l-81 5 -110 315 -111 315 48 47 c26 26 48 51 48 57 0 6 6 11 13 11 6
0 154 -56 327 -124z m-429 -348 l111 -317 -39 -38 c-21 -21 -47 -51 -58 -67
l-20 -28 -235 44 -234 44 -18 49 c-10 28 -32 70 -48 94 -17 23 -30 46 -28 51
2 4 72 115 157 246 l153 239 74 0 73 0 112 -317z m-1458 88 c53 -26 65 -28
140 -23 45 3 93 7 107 9 21 3 37 -14 117 -126 l94 -129 -25 -26 c-32 -35 -62
-97 -71 -149 -5 -32 -12 -43 -28 -47 -26 -6 -716 -115 -727 -115 -4 0 -11 12
-15 28 -7 31 -47 95 -81 132 l-23 26 221 227 c121 125 223 226 227 224 3 -1
32 -16 64 -31z m2896 -577 l202 -351 -40 -43 c-56 -61 -74 -101 -79 -180 l-4
-70 -180 -110 c-99 -61 -189 -114 -198 -119 -14 -6 -27 0 -56 29 -72 72 -196
106 -299 82 l-30 -8 -124 227 c-113 208 -123 229 -110 248 7 12 26 45 41 75
35 67 38 163 9 241 l-19 50 142 122 c77 67 148 127 156 135 13 10 23 9 60 -10
68 -34 196 -32 265 4 28 14 53 27 56 28 3 0 97 -157 208 -350z m-1698 -19
c116 -22 214 -40 218 -40 5 0 11 -26 15 -57 4 -31 16 -77 27 -102 19 -43 19
-46 2 -62 -10 -9 -156 -120 -325 -248 l-307 -231 -17 32 c-30 59 -66 98 -113
125 -25 15 -47 28 -49 29 -5 3 57 316 68 342 5 12 18 22 28 22 35 0 122 52
161 96 21 24 45 65 52 89 7 25 17 45 22 45 5 0 103 -18 218 -40z m-722 -136
c24 -19 61 -39 83 -46 24 -7 38 -17 38 -28 0 -19 -58 -312 -63 -317 -2 -1 -27
-7 -56 -13 -90 -17 -163 -65 -213 -138 l-16 -24 -319 193 c-175 106 -335 203
-355 216 l-37 23 29 56 c17 31 30 64 30 75 0 23 -25 18 410 87 l365 59 30 -55
c16 -31 48 -69 74 -88z m1250 -239 c37 0 84 4 106 8 l40 8 121 -223 121 -223
-34 -40 c-19 -22 -41 -61 -51 -87 -14 -40 -21 -48 -42 -48 -44 0 -1131 108
-1136 112 -2 3 156 126 352 274 l356 270 51 -25 c38 -19 67 -26 116 -26z
m1373 -454 l45 -34 -184 -286 c-102 -157 -260 -402 -352 -544 l-166 -257 -18
24 c-21 29 -102 82 -139 91 -16 4 -28 9 -28 12 0 6 99 441 106 466 3 9 13 17
23 17 31 0 139 60 167 93 51 60 74 125 74 208 l0 76 191 116 192 116 21 -32
c12 -18 42 -47 68 -66z m-1667 -201 c297 -28 549 -53 560 -55 14 -3 25 -18 34
-50 25 -84 99 -163 178 -190 21 -7 39 -19 41 -27 1 -7 -21 -116 -51 -242 l-53
-229 -39 -12 c-53 -16 -94 -38 -128 -70 -25 -24 -30 -25 -45 -12 -9 7 -258
218 -552 467 -294 249 -542 459 -550 467 -13 13 -10 14 25 9 22 -3 283 -28
580 -56z"/>
</g>
</svg>
