<?xml version="1.0" standalone="no"?>
<!DOCTYPE svg PUBLIC "-//W3C//DTD SVG 20010904//EN"
 "http://www.w3.org/TR/2001/REC-SVG-20010904/DTD/svg10.dtd">
<svg version="1.0" xmlns="http://www.w3.org/2000/svg"
 width="907.000000pt" height="713.000000pt" viewBox="0 0 907.000000 713.000000"
 preserveAspectRatio="xMidYMid meet">

<g transform="translate(0.000000,713.000000) scale(0.100000,-0.100000)"
fill="#000000" stroke="none">
<path d="M4373 7100 c-101 -51 -156 -130 -169 -243 -6 -47 -11 -58 -28 -62
-12 -3 -138 -21 -281 -41 l-259 -37 -15 24 c-27 41 -77 85 -128 109 -38 19
-65 24 -128 24 -104 1 -166 -26 -233 -99 -79 -86 -101 -193 -63 -305 l19 -54
-178 -186 c-98 -102 -205 -212 -239 -244 l-60 -59 -73 2 c-96 3 -168 -23 -227
-81 -64 -64 -84 -109 -89 -204 -4 -72 -1 -89 20 -136 34 -74 79 -122 144 -154
74 -36 161 -42 237 -17 l57 20 382 -231 382 -231 12 -73 c7 -40 23 -91 38
-116 92 -157 308 -198 464 -88 l27 20 565 -481 565 -480 0 -96 c0 -85 3 -102
27 -147 34 -64 105 -128 165 -148 61 -21 167 -20 229 1 70 24 154 110 177 182
9 29 17 77 17 107 0 53 1 55 380 642 l381 589 59 6 c110 10 200 73 249 177 35
75 36 182 1 255 -56 115 -166 180 -296 173 l-71 -3 -215 373 -214 373 19 57
c48 143 -14 300 -147 370 -45 24 -62 27 -146 27 -101 0 -140 -13 -206 -68
l-29 -25 -335 132 -335 131 -6 71 c-8 81 -31 133 -86 187 -62 62 -105 80 -208
85 -85 3 -94 2 -152 -28z m-132 -422 c6 -13 29 -41 51 -64 l39 -41 -154 -239
c-140 -217 -156 -239 -178 -234 -36 8 -161 6 -191 -2 -25 -8 -31 -1 -123 127
l-96 135 25 33 c36 46 56 110 56 173 0 36 4 54 13 55 9 0 505 72 539 78 4 0
12 -9 19 -21z m879 -122 c300 -118 315 -125 310 -148 -3 -12 -5 -57 -5 -98 0
-58 6 -86 24 -123 28 -58 45 -34 -147 -200 l-133 -115 -51 26 c-38 20 -71 28
-132 32 l-81 5 -110 315 -111 315 48 47 c26 26 48 51 48 57 0 6 6 11 13 11 6
0 154 -56 327 -124z m-429 -348 l111 -317 -39 -38 c-21 -21 -47 -51 -58 -67
l-20 -28 -235 44 -234 44 -18 49 c-10 28 -32 70 -48 94 -17 23 -30 46 -28 51
2 4 72 115 157 246 l153 239 74 0 73 0 112 -317z m-1458 88 c53 -26 65 -28
140 -23 45 3 93 7 107 9 21 3 37 -14 117 -126 l94 -129 -25 -26 c-32 -35 -62
-97 -71 -149 -5 -32 -12 -43 -28 -47 -26 -6 -716 -115 -727 -115 -4 0 -11 12
-15 28 -7 31 -47 95 -81 132 l-23 26 221 227 c121 125 223 226 227 224 3 -1
32 -16 64 -31z m2896 -577 l202 -351 -40 -43 c-56 -61 -74 -101 -79 -180 l-4
-70 -180 -110 c-99 -61 -189 -114 -198 -119 -14 -6 -27 0 -56 29 -72 72 -196
106 -299 82 l-30 -8 -124 227 c-113 208 -123 229 -110 248 7 12 26 45 41 75
35 67 38 163 9 241 l-19 50 142 122 c77 67 148 127 156 135 13 10 23 9 60 -10
68 -34 196 -32 265 4 28 14 53 27 56 28 3 0 97 -157 208 -350z m-1698 -19
c116 -22 214 -40 218 -40 5 0 11 -26 15 -57 4 -31 16 -77 27 -102 19 -43 19
-46 2 -62 -10 -9 -156 -120 -325 -248 l-307 -231 -17 32 c-30 59 -66 98 -113
125 -25 15 -47 28 -49 29 -5 3 57 316 68 342 5 12 18 22 28 22 35 0 122 52
161 96 21 24 45 65 52 89 7 25 17 45 22 45 5 0 103 -18 218 -40z m-722 -136
c24 -19 61 -39 83 -46 24 -7 38 -17 38 -28 0 -19 -58 -312 -63 -317 -2 -1 -27
-7 -56 -13 -90 -17 -163 -65 -213 -138 l-16 -24 -319 193 c-175 106 -335 203
-355 216 l-37 23 29 56 c17 31 30 64 30 75 0 23 -25 18 410 87 l365 59 30 -55
c16 -31 48 -69 74 -88z m1250 -239 c37 0 84 4 106 8 l40 8 121 -223 121 -223
-34 -40 c-19 -22 -41 -61 -51 -87 -14 -40 -21 -48 -42 -48 -44 0 -1131 108
-1136 112 -2 3 156 126 352 274 l356 270 51 -25 c38 -19 67 -26 116 -26z
m1373 -454 l45 -34 -184 -286 c-102 -157 -260 -402 -352 -544 l-166 -257 -18
24 c-21 29 -102 82 -139 91 -16 4 -28 9 -28 12 0 6 99 441 106 466 3 9 13 17
23 17 31 0 139 60 167 93 51 60 74 125 74 208 l0 76 191 116 192 116 21 -32
c12 -18 42 -47 68 -66z m-1667 -201 c297 -28 549 -53 560 -55 14 -3 25 -18 34
-50 25 -84 99 -163 178 -190 21 -7 39 -19 41 -27 1 -7 -21 -116 -51 -242 l-53
-229 -39 -12 c-53 -16 -94 -38 -128 -70 -25 -24 -30 -25 -45 -12 -9 7 -258
218 -552 467 -294 249 -542 459 -550 467 -13 13 -10 14 25 9 22 -3 283 -28
580 -56z"/>
<path d="M606 3865 c-13 -14 -51 -34 -89 -45 -162 -50 -306 -212 -258 -289 6
-9 25 -15 47 -15 31 0 42 6 63 34 39 51 90 97 128 115 19 9 36 15 38 13 3 -3
-264 -1261 -269 -1265 -2 -2 -31 8 -65 22 -34 14 -82 28 -106 31 -38 6 -47 3
-69 -19 -56 -56 -18 -109 115 -163 46 -18 85 -38 87 -43 2 -5 -33 -177 -77
-383 -117 -548 -135 -652 -119 -685 17 -37 57 -42 92 -11 24 21 31 45 70 248
25 124 72 353 105 510 34 157 61 288 61 291 0 4 19 2 42 -3 63 -15 260 -3 353
21 44 12 123 42 175 68 80 39 109 60 185 137 175 177 252 374 262 676 6 175
-8 255 -66 374 -106 217 -290 345 -523 363 -63 5 -81 10 -89 25 -15 27 -65 24
-93 -7z m276 -190 c158 -54 282 -187 342 -366 67 -201 29 -457 -97 -647 -96
-143 -258 -261 -408 -297 -64 -15 -249 -19 -300 -6 l-25 6 133 620 c73 341
137 644 144 674 l11 53 66 -7 c37 -4 97 -17 134 -30z"/>
<path d="M2981 3833 c-17 -15 -41 -112 -145 -603 -181 -848 -269 -1283 -327
-1610 -14 -79 -22 -169 -23 -246 -1 -115 0 -122 26 -162 42 -63 76 -77 188
-76 109 1 196 28 230 71 38 48 19 133 -29 133 -10 0 -52 -16 -94 -35 -42 -19
-89 -35 -105 -35 -35 0 -78 39 -87 78 -12 59 65 459 326 1697 104 492 149 721
145 745 -9 57 -61 79 -105 43z"/>
<path d="M8963 3815 c-28 -19 -26 -12 -117 -455 -62 -300 -159 -745 -191 -873
l-7 -28 -24 34 c-48 71 -153 94 -277 62 -100 -26 -219 -118 -294 -226 -155
-225 -232 -485 -236 -789 -2 -119 1 -144 22 -209 28 -84 70 -146 121 -176 29
-16 52 -20 130 -20 84 0 102 3 152 28 67 33 126 95 166 177 l29 58 1 -67 c0
-82 27 -177 58 -208 30 -29 37 -29 75 5 35 31 37 47 20 147 -7 39 -9 92 -6
120 13 96 86 436 150 703 35 147 76 331 91 407 33 178 118 599 184 915 58 278
66 373 36 396 -26 18 -56 18 -83 -1z m-463 -1404 c38 -27 71 -95 77 -159 6
-68 -34 -279 -78 -416 -81 -248 -253 -513 -354 -546 -67 -22 -130 12 -171 90
-72 141 27 580 193 853 105 174 238 245 333 178z"/>
<path d="M6579 2991 c-34 -34 -39 -44 -39 -86 0 -39 5 -52 30 -77 28 -27 36
-30 75 -25 66 7 91 28 105 86 13 55 7 103 -17 126 -9 9 -34 15 -65 15 -45 0
-54 -4 -89 -39z"/>
<path d="M6492 2590 c-30 -29 -37 -63 -23 -126 15 -64 19 -42 -122 -664 -113
-500 -123 -573 -85 -630 32 -47 85 -52 166 -15 83 38 112 69 112 120 0 74 -38
85 -103 30 -42 -37 -60 -40 -65 -12 -2 8 38 195 88 414 142 621 162 720 158
786 -3 37 -11 67 -25 85 -26 35 -70 40 -101 12z"/>
<path d="M4674 2585 c-30 -20 -40 -54 -59 -180 -41 -278 -108 -618 -184 -922
-85 -346 -85 -346 -41 -362 85 -29 122 28 241 369 45 130 212 480 304 635 109
186 217 295 291 295 48 0 58 -25 51 -124 -7 -102 -45 -228 -152 -511 -46 -122
-93 -256 -105 -296 -29 -105 -61 -286 -53 -307 12 -34 36 -52 69 -52 44 0 67
31 94 131 40 149 206 643 243 723 44 93 128 223 192 294 67 75 187 152 235
152 54 0 64 -17 56 -93 -14 -121 -39 -215 -137 -516 -123 -376 -141 -442 -142
-541 -1 -89 15 -138 49 -146 63 -16 91 25 110 162 17 118 35 184 135 499 85
265 116 389 128 515 14 140 0 197 -63 245 -84 64 -237 9 -396 -142 l-90 -85 0
43 c0 60 -39 140 -86 175 -34 26 -45 29 -113 29 -95 -1 -161 -30 -243 -108
-88 -85 -215 -296 -308 -515 -13 -29 -24 -51 -26 -49 -3 2 9 60 25 128 43 181
61 290 68 419 5 101 4 118 -11 133 -21 21 -55 22 -82 2z"/>
<path d="M3455 2573 c-36 -9 -75 -54 -75 -88 0 -17 -31 -155 -70 -307 -91
-362 -122 -537 -124 -698 -1 -149 14 -205 75 -274 47 -53 125 -83 187 -71 117
22 239 147 358 369 24 44 44 79 44 76 0 -3 -31 -106 -68 -230 l-69 -225 -74
-58 c-41 -32 -121 -90 -179 -129 -333 -227 -436 -348 -460 -544 -16 -125 3
-196 77 -295 70 -92 204 -124 328 -78 78 29 176 126 221 219 61 125 139 410
195 712 l22 117 111 90 c61 49 130 108 154 130 39 36 43 43 40 82 -6 87 -56
78 -173 -31 -46 -44 -86 -80 -88 -80 -2 0 18 98 45 218 178 790 218 977 224
1026 7 54 6 55 -21 62 -36 9 -73 -5 -96 -36 -10 -14 -53 -153 -94 -310 -115
-435 -165 -575 -262 -736 -117 -195 -268 -259 -327 -139 -16 31 -20 60 -20
135 1 110 22 228 100 555 74 308 104 449 104 484 0 20 -8 35 -22 45 -23 16
-29 17 -63 9z m203 -1725 c-44 -217 -119 -451 -175 -547 -33 -57 -89 -119
-124 -137 -36 -18 -92 -18 -129 1 -61 32 -100 145 -81 236 30 140 107 229 361
416 91 67 166 122 166 122 1 1 -7 -41 -18 -91z"/>
<path d="M1905 2552 c-80 -28 -137 -66 -203 -136 -174 -187 -279 -439 -313
-751 -18 -171 -3 -288 51 -396 50 -100 108 -134 230 -134 74 0 92 4 139 29 76
39 196 164 254 263 145 248 226 552 214 798 -8 159 -41 247 -109 298 -68 50
-170 61 -263 29z m187 -164 c14 -16 29 -46 33 -65 12 -65 7 -238 -9 -327 -58
-304 -240 -650 -376 -711 -35 -16 -45 -17 -82 -5 -94 28 -138 117 -138 281 0
284 157 657 338 802 89 71 184 81 234 25z"/>
<path d="M7087 2540 c-31 -25 -45 -81 -121 -495 -102 -552 -136 -758 -136
-821 0 -54 3 -62 21 -67 62 -16 94 28 184 253 36 91 126 287 199 435 136 273
249 460 307 509 43 37 78 32 102 -14 28 -53 18 -145 -68 -659 -41 -248 -75
-466 -75 -485 0 -44 23 -58 87 -54 56 4 56 4 78 193 9 72 40 261 70 420 30
160 59 336 65 391 16 154 -5 295 -53 355 -23 30 -82 59 -120 59 -148 0 -293
-199 -508 -692 -35 -81 -65 -145 -67 -143 -5 5 45 266 74 386 14 57 40 153 59
213 48 150 45 194 -12 224 -31 17 -57 15 -86 -8z"/>
</g>
</svg>
