<svg xmlns="http://www.w3.org/2000/svg" xmlns:xlink="http://www.w3.org/1999/xlink" viewBox="0 0 85.33 98.99"><defs><style>.cls-1{isolation:isolate;}.cls-2{fill:url(#Sfumatura_senza_nome_177);}.cls-14,.cls-25,.cls-3,.cls-30{opacity:0.7;}.cls-3{fill:url(#Fade_To_White);}.cls-12,.cls-17,.cls-4{opacity:0.8;}.cls-4{fill:url(#linear-gradient);}.cls-5{fill:url(#Sfumatura_senza_nome_174);}.cls-16,.cls-19,.cls-22,.cls-37,.cls-45,.cls-6{opacity:0.5;}.cls-6{fill:url(#linear-gradient-2);}.cls-7{fill:url(#Sfumatura_senza_nome_55);}.cls-8{fill:url(#Sfumatura_senza_nome_116);}.cls-9{fill:url(#Sfumatura_senza_nome_156);}.cls-10,.cls-41,.cls-42,.cls-43{mix-blend-mode:overlay;}.cls-10{fill:url(#linear-gradient-3);}.cls-11{fill:url(#Sfumatura_senza_nome_98);}.cls-12{fill:url(#Fade_To_White-2);}.cls-13{fill:url(#Fade_To_White-3);}.cls-14{fill:url(#Fade_To_White-4);}.cls-15{fill:url(#Sfumatura_senza_nome_166);}.cls-16{fill:url(#linear-gradient-4);}.cls-17{fill:url(#linear-gradient-5);}.cls-18{fill:url(#Sfumatura_senza_nome_169);}.cls-19{fill:url(#linear-gradient-6);}.cls-20,.cls-31,.cls-32,.cls-33,.cls-34,.cls-35{opacity:0.4;}.cls-20{fill:url(#linear-gradient-7);}.cls-21{fill:url(#radial-gradient);}.cls-22{fill:url(#linear-gradient-8);}.cls-23{fill:url(#radial-gradient-2);}.cls-24{fill:url(#Sfumatura_senza_nome_126);}.cls-25{fill:url(#Sfumatura_senza_nome_58);}.cls-26{fill:url(#linear-gradient-9);}.cls-27{fill:url(#linear-gradient-10);}.cls-28{fill:url(#linear-gradient-11);}.cls-29{fill:url(#Fade_To_White-5);}.cls-30{fill:url(#Fade_To_White-6);}.cls-31{fill:url(#linear-gradient-12);}.cls-32{fill:url(#linear-gradient-13);}.cls-33{fill:url(#linear-gradient-14);}.cls-34{fill:url(#linear-gradient-15);}.cls-35{fill:url(#linear-gradient-16);}.cls-36{fill:url(#Sfumatura_senza_nome_161);}.cls-37{fill:url(#linear-gradient-17);}.cls-38{fill:url(#Sfumatura_senza_nome_96);}.cls-39{fill:url(#Sfumatura_senza_nome_89);}.cls-40{fill:url(#Sfumatura_senza_nome_92);}.cls-41{fill:url(#linear-gradient-18);}.cls-42{fill:url(#Sfumatura_senza_nome_64);}.cls-43{fill:url(#linear-gradient-19);}.cls-44{fill:url(#Sfumatura_senza_nome_171);}.cls-45{fill:url(#linear-gradient-20);}</style><radialGradient id="Sfumatura_senza_nome_177" cx="-0.74" cy="-77.99" r="126.63" gradientTransform="matrix(0.86, -0.52, -0.52, -0.86, -2.95, -13.77)" gradientUnits="userSpaceOnUse"><stop offset="0" stop-color="#ff7383"/><stop offset="0.36" stop-color="#ff7383"/><stop offset="0.76" stop-color="#007fc3"/><stop offset="0.99" stop-color="#005789"/></radialGradient><linearGradient id="Fade_To_White" x1="140" y1="-61.91" x2="52.11" y2="-77.96" gradientTransform="translate(29.94 -104.89) rotate(106.59)" gradientUnits="userSpaceOnUse"><stop offset="0" stop-color="#fff" stop-opacity="0"/><stop offset="1" stop-color="#fff"/></linearGradient><linearGradient id="linear-gradient" x1="142.18" y1="-58.58" x2="144.03" y2="-28.65" gradientTransform="translate(29.94 -104.89) rotate(106.59)" gradientUnits="userSpaceOnUse"><stop offset="0" stop-color="#262262" stop-opacity="0"/><stop offset="1" stop-color="#262262"/></linearGradient><radialGradient id="Sfumatura_senza_nome_174" cx="52.92" cy="-186.44" r="20.16" gradientTransform="translate(78.94 -41.27) rotate(180) scale(0.6 0.48)" xlink:href="#Sfumatura_senza_nome_177"/><linearGradient id="linear-gradient-2" x1="142.84" y1="216.09" x2="141.49" y2="218.9" gradientTransform="translate(-84.81 -177.4) rotate(3.19)" gradientUnits="userSpaceOnUse"><stop offset="0" stop-color="#fff"/><stop offset="1" stop-color="#fff" stop-opacity="0"/></linearGradient><radialGradient id="Sfumatura_senza_nome_55" cx="12.8" cy="29.67" r="44.81" gradientUnits="userSpaceOnUse"><stop offset="0" stop-color="#fff" stop-opacity="0.2"/><stop offset="1" stop-color="#67dbd8" stop-opacity="0.6"/></radialGradient><radialGradient id="Sfumatura_senza_nome_116" cx="41.74" cy="34.46" r="34.95" gradientUnits="userSpaceOnUse"><stop offset="0" stop-color="#ff7383"/><stop offset="0.36" stop-color="#ff7383"/><stop offset="0.76" stop-color="#ff2e41"/><stop offset="0.99" stop-color="#005789"/></radialGradient><radialGradient id="Sfumatura_senza_nome_156" cx="47.91" cy="39.01" r="78.39" gradientUnits="userSpaceOnUse"><stop offset="0" stop-color="#f9be6c"/><stop offset="0.14" stop-color="#f9be6c"/><stop offset="0.46" stop-color="#ff7383"/><stop offset="1" stop-color="#f9be6c"/></radialGradient><linearGradient id="linear-gradient-3" x1="44.37" y1="66.73" x2="62.34" y2="34.52" gradientUnits="userSpaceOnUse"><stop offset="0" stop-color="#231f20"/><stop offset="0.4" stop-color="#231f20" stop-opacity="0.3"/><stop offset="0.67" stop-color="#231f20" stop-opacity="0"/></linearGradient><radialGradient id="Sfumatura_senza_nome_98" cx="4.6" cy="46.33" r="199.9" gradientTransform="translate(1.88 32.11) rotate(-21.92)" gradientUnits="userSpaceOnUse"><stop offset="0" stop-color="#f9be6c"/><stop offset="0.36" stop-color="#f9be6c"/><stop offset="0.76" stop-color="#f9be6c"/><stop offset="1" stop-color="#f9be6c"/></radialGradient><linearGradient id="Fade_To_White-2" x1="32.2" y1="-7.23" x2="28.13" y2="-91.43" gradientTransform="matrix(-0.94, -0.35, -0.35, 0.94, 94.5, 60.45)" xlink:href="#Fade_To_White"/><linearGradient id="Fade_To_White-3" x1="29.23" y1="-12.48" x2="-137.48" y2="-42.93" gradientTransform="matrix(-0.94, -0.35, -0.35, 0.94, 94.5, 60.45)" xlink:href="#Fade_To_White"/><linearGradient id="Fade_To_White-4" x1="47.46" y1="18.16" x2="-91.29" y2="-7.18" gradientTransform="matrix(-0.94, -0.35, -0.35, 0.94, 94.5, 60.45)" xlink:href="#Fade_To_White"/><radialGradient id="Sfumatura_senza_nome_166" cx="62.4" cy="45.68" r="31.83" gradientTransform="matrix(0, -1, -1, 0, 61.95, 147.27)" xlink:href="#Sfumatura_senza_nome_177"/><linearGradient id="linear-gradient-4" x1="210.91" y1="106.02" x2="207.05" y2="114.08" gradientTransform="matrix(0.06, 1, 1, -0.06, -108.99, -123.58)" xlink:href="#linear-gradient-2"/><linearGradient id="linear-gradient-5" x1="49.87" y1="26.05" x2="52.79" y2="73.3" gradientTransform="matrix(-0.94, -0.35, -0.35, 0.94, 94.5, 60.45)" xlink:href="#linear-gradient"/><radialGradient id="Sfumatura_senza_nome_169" cx="-32.16" cy="50" r="31.83" gradientTransform="matrix(-0.6, 0, 0, 0.48, 22.5, 42.54)" xlink:href="#Sfumatura_senza_nome_177"/><linearGradient id="linear-gradient-6" x1="230.18" y1="125.18" x2="228.06" y2="129.62" gradientTransform="matrix(0.06, 1, 1, -0.06, -102.63, -153.15)" xlink:href="#linear-gradient-2"/><linearGradient id="linear-gradient-7" x1="248.94" y1="142.63" x2="245.57" y2="149.66" gradientTransform="matrix(0.06, 1, 1, -0.06, -99.84, -182.97)" xlink:href="#linear-gradient-2"/><radialGradient id="radial-gradient" cx="-58.5" cy="44.94" r="31.83" gradientTransform="matrix(-0.6, 0, 0, 0.48, 22.31, 41.53)" gradientUnits="userSpaceOnUse"><stop offset="0" stop-color="#00c5ef"/><stop offset="0.11" stop-color="#00bcea"/><stop offset="0.28" stop-color="#00a2db"/><stop offset="0.36" stop-color="#0094d3"/><stop offset="0.76" stop-color="#007fc3"/><stop offset="0.99" stop-color="#005789"/></radialGradient><linearGradient id="linear-gradient-8" x1="243.73" y1="133.71" x2="242.02" y2="137.29" gradientTransform="matrix(0.06, 1, 1, -0.06, -95.84, -170.08)" xlink:href="#linear-gradient-2"/><radialGradient id="radial-gradient-2" cx="14.73" cy="33.92" r="159.26" gradientTransform="matrix(-0.01, -1, 1, -0.01, 10.93, 15.97)" xlink:href="#radial-gradient"/><radialGradient id="Sfumatura_senza_nome_126" cx="14.73" cy="33.92" r="159.26" gradientTransform="matrix(-0.01, -1, 1, -0.01, 10.93, 15.97)" gradientUnits="userSpaceOnUse"><stop offset="0" stop-color="#ff7383"/><stop offset="0.41" stop-color="#f9be6c"/><stop offset="0.44" stop-color="#f0bc6f"/><stop offset="0.49" stop-color="#d6b578"/><stop offset="0.56" stop-color="#acab87"/><stop offset="0.63" stop-color="#739c9b"/><stop offset="0.72" stop-color="#2a8ab4"/><stop offset="0.76" stop-color="#007fc3"/><stop offset="0.99" stop-color="#005789"/></radialGradient><linearGradient id="Sfumatura_senza_nome_58" x1="58.32" y1="14.81" x2="-49.05" y2="-4.81" gradientTransform="matrix(-0.74, -0.67, -0.67, 0.74, 75.35, 60.87)" gradientUnits="userSpaceOnUse"><stop offset="0" stop-color="#fff" stop-opacity="0"/><stop offset="1" stop-color="#f9be6c"/></linearGradient><linearGradient id="linear-gradient-9" x1="57.16" y1="11.13" x2="86.72" y2="14.8" gradientTransform="matrix(-0.74, -0.67, -0.67, 0.74, 75.35, 60.87)" xlink:href="#linear-gradient"/><linearGradient id="linear-gradient-10" x1="67.14" y1="7.62" x2="67.24" y2="7.63" gradientTransform="matrix(-0.74, -0.67, -0.67, 0.74, 75.35, 60.87)" xlink:href="#linear-gradient"/><linearGradient id="linear-gradient-11" x1="52.88" y1="35.43" x2="49.84" y2="54.03" gradientTransform="matrix(-0.74, -0.67, -0.67, 0.74, 75.35, 60.87)" xlink:href="#linear-gradient"/><linearGradient id="Fade_To_White-5" x1="53.03" y1="22.77" x2="35.34" y2="19.54" gradientTransform="matrix(-0.74, -0.67, -0.67, 0.74, 75.35, 60.87)" xlink:href="#Fade_To_White"/><linearGradient id="Fade_To_White-6" x1="58.11" y1="42.83" x2="56.68" y2="33.77" gradientTransform="matrix(0, -1, -1, 0, 46.23, 111.2)" xlink:href="#Fade_To_White"/><linearGradient id="linear-gradient-12" x1="229.86" y1="128" x2="226.32" y2="135.39" gradientTransform="matrix(0.06, 1, 1, -0.06, -123.16, -177.37)" xlink:href="#linear-gradient-2"/><linearGradient id="linear-gradient-13" x1="224.19" y1="131.72" x2="221.3" y2="137.77" gradientTransform="matrix(0.06, 1, 1, -0.06, -128.04, -177.52)" xlink:href="#linear-gradient-2"/><linearGradient id="linear-gradient-14" x1="231.16" y1="116.98" x2="228.26" y2="123.04" gradientTransform="matrix(0.06, 1, 1, -0.06, -117.58, -169.45)" xlink:href="#linear-gradient-2"/><linearGradient id="linear-gradient-15" x1="224.39" y1="145.01" x2="221.5" y2="151.06" gradientTransform="matrix(0.06, 1, 1, -0.06, -132.8, -187.18)" xlink:href="#linear-gradient-2"/><linearGradient id="linear-gradient-16" x1="227.78" y1="120.81" x2="223.05" y2="130.68" gradientTransform="matrix(0.06, 1, 1, -0.06, -123.09, -172.24)" xlink:href="#linear-gradient-2"/><radialGradient id="Sfumatura_senza_nome_161" cx="-38.96" cy="264.8" r="41.83" gradientTransform="matrix(-0.6, 0, 0, 0.48, 2.65, -69.34)" xlink:href="#Sfumatura_senza_nome_177"/><linearGradient id="linear-gradient-17" x1="269.95" y1="28.65" x2="267.7" y2="33.35" gradientTransform="matrix(1, -0.06, -0.06, -1, -245.59, 106.96)" xlink:href="#linear-gradient-2"/><radialGradient id="Sfumatura_senza_nome_96" cx="106.4" cy="12.86" r="119.29" gradientUnits="userSpaceOnUse"><stop offset="0.05" stop-color="#70bab8"/><stop offset="1" stop-color="#bdd2d9"/></radialGradient><radialGradient id="Sfumatura_senza_nome_89" cx="109.38" cy="160.99" r="145.6" gradientUnits="userSpaceOnUse"><stop offset="0" stop-color="#fff"/><stop offset="1" stop-color="#ebebeb"/></radialGradient><linearGradient id="Sfumatura_senza_nome_92" x1="45.07" y1="54.02" x2="69.49" y2="5.74" gradientUnits="userSpaceOnUse"><stop offset="0.12" stop-color="#4ab7c3" stop-opacity="0"/><stop offset="0.28" stop-color="#5ec3cd" stop-opacity="0.17"/><stop offset="0.65" stop-color="#8ee1e6" stop-opacity="0.59"/><stop offset="1" stop-color="#bffffe"/></linearGradient><linearGradient id="linear-gradient-18" x1="78.2" y1="43.17" x2="9.32" y2="147.85" gradientUnits="userSpaceOnUse"><stop offset="0.14" stop-color="#231f20" stop-opacity="0"/><stop offset="0.48" stop-color="#231f20" stop-opacity="0.3"/><stop offset="1" stop-color="#231f20"/></linearGradient><linearGradient id="Sfumatura_senza_nome_64" x1="79.02" y1="56.4" x2="68.27" y2="15.96" gradientUnits="userSpaceOnUse"><stop offset="0.33" stop-color="#231f20" stop-opacity="0"/><stop offset="0.6" stop-color="#231f20" stop-opacity="0.3"/><stop offset="1" stop-color="#231f20"/></linearGradient><linearGradient id="linear-gradient-19" x1="73.55" y1="66.63" x2="72.26" y2="32.17" xlink:href="#Sfumatura_senza_nome_64"/><radialGradient id="Sfumatura_senza_nome_171" cx="-39.6" cy="229.25" r="41.83" gradientTransform="matrix(-0.6, 0, 0, 0.48, -9.81, -64.39)" xlink:href="#Sfumatura_senza_nome_177"/><linearGradient id="linear-gradient-20" x1="264.2" y1="44.86" x2="261.95" y2="49.56" gradientTransform="matrix(1, -0.06, -0.06, -1, -251.03, 110.58)" xlink:href="#linear-gradient-2"/></defs><g class="cls-1"><g id="Layer_2" data-name="Layer 2"><path class="cls-2" d="M58.08,41.44a14.43,14.43,0,0,1-2,.24,13,13,0,0,1-2.48,2.08c-3.58,2.29-4.35,2-5.11,1.74a1.07,1.07,0,0,0-1.45.78c-.19.63.59,2.09,4.58.65,0,0-3.19,6.71-8.44,4.77s-5,.29-4.26,1.2c0,0-5.15,1.47-6.36-2.79-1.14-4,2.09-3.44,2.09-3.44a1.48,1.48,0,0,0,1,1.83,1.83,1.83,0,0,0,2.46-1.33c.37-1.12-.37-3.21-3.85-3-4.5.21-5.58,7.89-2.32,10,0,0,1.1-.11,1.34.73s7.39,5.6,17-3A53,53,0,0,1,55.08,48a11.92,11.92,0,0,1,3.08-2C58.07,44.52,58,43,58.08,41.44Z" transform="translate(0)"/><path class="cls-3" d="M58.08,41.44a14.43,14.43,0,0,1-2,.24,13,13,0,0,1-2.48,2.08c-3.58,2.29-4.35,2-5.11,1.74a1.07,1.07,0,0,0-1.45.78c-.19.63.59,2.09,4.58.65,0,0-3.19,6.71-8.44,4.77-4.77-1.75-5-.09-4.44.92a25.94,25.94,0,0,0,9.36,1,26.24,26.24,0,0,0,2.17-1.74A53.17,53.17,0,0,1,55.1,48a12,12,0,0,1,3.06-1.93C58.07,44.52,58,43,58.08,41.44Z" transform="translate(0)"/><path class="cls-4" d="M58.07,42.14l-2.43,0a13.05,13.05,0,0,1-2.08,1.66c-3.58,2.29-4.35,2-5.11,1.74a1.07,1.07,0,0,0-1.45.78c-.19.63.59,2.09,4.58.65,0,0-3.19,6.7-8.44,4.77s-5,.29-4.26,1.2c0,0-5.15,1.47-6.36-2.79a3.87,3.87,0,0,1-.1-2.36h0s-2.09,4.5,2.92,6.68,10.62.79,17.68-7a16.21,16.21,0,0,1,5-3.78C58,43.12,58.06,42.63,58.07,42.14Z" transform="translate(0)"/><ellipse class="cls-5" cx="44.97" cy="48" rx="0.68" ry="0.6" transform="translate(-20.74 50.94) rotate(-49.43)"/><ellipse class="cls-6" cx="44.88" cy="47.97" rx="0.36" ry="0.39" transform="translate(-13.9 77.29) rotate(-73.41)"/><path class="cls-7" d="M50.83,14.46l-10.24-.72-2.31-2.59-16.06,3.5a24.74,24.74,0,0,1,1.21,15.73c3,.84,8.09,1.21,13.41-3.36,6.54-5.63,14.07-1.29,16.44,4.79.61,0,1.21-.09,1.85-.09.36,0,.7,0,1.06.05.63-2.45,1.14-4.6,1.14-4.6Z" transform="translate(0)"/><path class="cls-8" d="M42.37,9.83c-7.38,0-13.75,5.52-16.82,13.53A18.77,18.77,0,1,1,41.27,57,14.42,14.42,0,0,1,42,58.33c.13,0,.25,0,.38,0,10.37,0,18.77-10.86,18.77-24.27S52.74,9.83,42.37,9.83Z" transform="translate(0)"/><path class="cls-9" d="M44.42,6.31c-6.88,0-13,3.84-17,9.83A21.83,21.83,0,1,1,42.56,56.8a21.29,21.29,0,0,1,1,2.1c.28,0,.57.05.85.05,12.07,0,21.85-11.78,21.85-26.32S56.49,6.31,44.42,6.31Z" transform="translate(0)"/><path class="cls-10" d="M66.27,32.6a23.82,23.82,0,0,1-5.13.54c-.76,0-1.5,0-2.22-.1a22.09,22.09,0,0,1,.17,2.59A21.84,21.84,0,0,1,42.56,56.8a21.29,21.29,0,0,1,1,2.1c.28,0,.57.05.85.05,12.07,0,21.85-11.78,21.85-26.32Z" transform="translate(0)"/><path class="cls-11" d="M64.41,55.57c1.46-3.82,3.22-7.53,4.31-11.47a19.52,19.52,0,0,1,1.72-8.58c-2.25-.55-4.48-1.2-6.73-1.91a25,25,0,0,1-2.17,9.82,2.46,2.46,0,0,0,2.55-.57S63.82,45,61,45c-1.19,2.23-2,4-3.81,5.72-.2.2-.44.4-.71.62a23,23,0,0,1-9.09,4,83.32,83.32,0,0,1-9.52,2.43C18,61.76,17.21,75.28,18,76.39s-.35,2.39-.35,2.39c-.39,6.14,10.34,12,14.87,6.57,3.5-4.24,1.56-7.15-.2-7.75a2.89,2.89,0,0,0-4,1.84,2.33,2.33,0,0,0,1.35,3s-2.31,4.65-6.32-.62c-4.24-5.56,2.49-10.68,2.49-10.68.47,1.79,3,4.23,5.54-4.23s14-6.15,14-6.15c-5.6,3.68-4.49,6.05-3.52,6.4a1.68,1.68,0,0,0,2.36-1.08c.44-1.18.75-2.47,7-4.81a19.15,19.15,0,0,1,11.36-.8c-2.84,0-5.87,1-6.57,1.92s-.62,3.42,3.2,1.24a12.91,12.91,0,0,1,2.9-1.16c.32-.14.61-.3.93-.43l.45-.16A15.41,15.41,0,0,1,64.41,55.57Z" transform="translate(0)"/><path class="cls-12" d="M68.72,44.1a19.56,19.56,0,0,1,1.72-8.59c-1.09-.27-2.18-.55-3.26-.86-.15.35-.35.66-.49,1a20.83,20.83,0,0,0,0,14.35A56.85,56.85,0,0,0,68.72,44.1Z" transform="translate(0)"/><path class="cls-13" d="M68.79,41.83a19.21,19.21,0,0,1,1.65-6.31c-2.25-.55-4.48-1.2-6.73-1.91A25,25,0,0,1,63,39l2.92.94A5.94,5.94,0,0,1,68.79,41.83Z" transform="translate(0)"/><path class="cls-14" d="M64.41,55.57c.49-1.28,1-2.56,1.54-3.83-2.7-1.19-4.15-2.36-7-2.71-.49.83-4.74,4.74-11.57,6.31a84.28,84.28,0,0,1-9.56,2.43,42.55,42.55,0,0,0-4.26,1.09,40.79,40.79,0,0,0-7.54,12.82c.76,1.64,3.05,2.93,5.35-4.74,2.53-8.46,14-6.15,14-6.15-5.6,3.68-4.49,6.05-3.52,6.4a1.68,1.68,0,0,0,2.36-1.08c.44-1.18.75-2.47,7-4.81a19.15,19.15,0,0,1,11.36-.8c-2.84,0-5.87,1-6.57,1.92s-.62,3.42,3.2,1.24a12.91,12.91,0,0,1,2.9-1.16c.32-.14.6-.3.93-.43l.45-.16A15.41,15.41,0,0,1,64.41,55.57Z" transform="translate(0)"/><ellipse class="cls-15" cx="13.35" cy="78.42" rx="1.96" ry="1.81" transform="translate(-65.53 68.14) rotate(-72.91)"/><ellipse class="cls-16" cx="13.38" cy="78.49" rx="1.11" ry="1.04" transform="translate(-64.89 63.84) rotate(-69.73)"/><path class="cls-17" d="M46.21,58.55a25.73,25.73,0,0,0,14.35-6,1.43,1.43,0,0,0,.2.23l-5.38,7.45a20.53,20.53,0,0,0-4.06,1.06c-6.29,2.34-6.6,3.63-7,4.81a1.68,1.68,0,0,1-2.36,1.08c-1-.35-2.08-2.72,3.52-6.4,0,0-11.5-2.31-14,6.15s-5.07,6-5.54,4.23c0,0-6.73,5.13-2.49,10.68a6.24,6.24,0,0,0,2.88,2.38h0s-7.66-1.63-5.67-10S29.65,60.06,46.21,58.55Z" transform="translate(0)"/><ellipse class="cls-18" cx="37.83" cy="68.13" rx="1.08" ry="0.95" transform="matrix(1, -0.06, 0.06, 1, -4.33, 2.59)"/><ellipse class="cls-19" cx="37.79" cy="68.27" rx="0.61" ry="0.58" transform="translate(-39.35 80.06) rotate(-69.73)"/><ellipse class="cls-20" cx="60.58" cy="55.36" rx="0.96" ry="0.91" transform="translate(-12.34 93.01) rotate(-69.73)"/><ellipse class="cls-21" cx="53.33" cy="64.67" rx="1.08" ry="0.95" transform="translate(-4.07 3.59) rotate(-3.71)"/><ellipse class="cls-22" cx="53.33" cy="64.67" rx="0.49" ry="0.46" transform="matrix(0.35, -0.94, 0.94, 0.35, -25.82, 92.29)"/><path class="cls-23" d="M49.28,5.7a23.36,23.36,0,0,0-7.08-1,15.31,15.31,0,0,1,1.72,2.47A20.59,20.59,0,0,1,49.28,5.7Z" transform="translate(0)"/><path class="cls-24" d="M32.09,23.5c1-6.84,4.85-13.2,11.55-16.22-1.52-1.11-6-3.63-13.6-1.23-9.45,3-12.85,11-12.12,15.11a5.39,5.39,0,0,1-1,4.14c.29-1.11-1.56-1.7-2.44-.93a2,2,0,0,0-.18,3.19c1.06,1,3.54,1.14,4.13-2.11a9.44,9.44,0,0,1,3.38-5.31s3,6.31-3.47,12.51-5.71,10.63-4.85,15.91S11.6,57.32,8.37,58a4.48,4.48,0,0,1-5-2.45C4.59,56.69,6,55.38,6,55.38,8.84,52.24,3.87,49,1.48,51.29s-1.62,5.18,1.09,7.79,7.49,2.7,11.58-.24S21.43,49,21.43,49c-1.71,4.25,1.77,10.19,3.25,9a1.33,1.33,0,0,0,0-2.25s-4.3-2.91,1-11.38-.59-9.68.43-7.33-1.84,8.09-1.81.61S31,33.41,32.09,23.5Z" transform="translate(0)"/><path class="cls-25" d="M32.09,23.5c1-6.85,4.85-13.2,11.55-16.22-1.52-1.11-6-3.63-13.6-1.23-9.45,3-12.85,11-12.12,15.11a5.39,5.39,0,0,1-1,4.14c.29-1.11-1.56-1.7-2.44-.93a2,2,0,0,0-.18,3.19c1.06,1,3.54,1.14,4.13-2.11a9.44,9.44,0,0,1,3.38-5.31s3,6.31-3.47,12.51-5.71,10.63-4.85,15.91S11.6,57.32,8.37,58a4.48,4.48,0,0,1-5-2.45C4.59,56.69,6,55.38,6,55.38,8.84,52.24,3.87,49,1.48,51.29s-1.62,5.18,1.09,7.79,7.49,2.7,11.58-.24S21.43,49,21.43,49c-1.71,4.25,1.77,10.19,3.25,9a1.33,1.33,0,0,0,0-2.25s-4.3-2.91,1-11.38-.59-9.68.43-7.33-1.84,8.09-1.81.61S31,33.41,32.09,23.5Z" transform="translate(0)"/><path class="cls-26" d="M32.09,23.5A21.66,21.66,0,0,1,35.77,14c-5.18.68-10.07,2.35-13.92,6.12,0,.07,3,6.33-3.47,12.5-5,4.76-5.67,8.47-5.34,12.32a8.35,8.35,0,0,0,1.49,1.86c2.26,2,5.51,2.61,9.1,1.91a19.7,19.7,0,0,1,2.11-4.34c5.32-8.47-.59-9.68.43-7.33s-1.84,8.09-1.81.61S31,33.41,32.09,23.5Z" transform="translate(0)"/><path class="cls-27" d="M20.61,21.31l-.22.25a0,0,0,0,0,0,0C20.46,21.45,20.54,21.39,20.61,21.31Z" transform="translate(0)"/><path class="cls-28" d="M15.48,41.78a9.55,9.55,0,0,1-8.8,16.33A4.47,4.47,0,0,0,8.37,58c3.23-.72,6-4.19,5.16-9.48-.46-2.85-.89-5.46-.18-8.23A9.91,9.91,0,0,1,15.48,41.78Z" transform="translate(0)"/><path class="cls-29" d="M25.44,32.23c4-2.45,4.93-5,4.93-5a10.18,10.18,0,0,1-1.4,3.3c-2.16,2-4.59,2.59-4.61,7.12,0,7.48,2.82,1.74,1.81-.61-.39-.9.23-1.28.86-.93a5.32,5.32,0,0,1,.35,1.17c.68,5.35-3,4.92-7.56,13.23s-8.34,7.85-6.69,7.1,5.1-4,5.9-9.35S21.4,34.68,25.44,32.23Z" transform="translate(0)"/><ellipse class="cls-30" cx="4.02" cy="53.19" rx="1.71" ry="2.1" transform="translate(-38.09 20.45) rotate(-47.81)"/><ellipse class="cls-31" cx="21.81" cy="42.61" rx="1.01" ry="0.96" transform="translate(-24.41 30.15) rotate(-47.81)"/><ellipse class="cls-32" cx="19.53" cy="37.04" rx="0.83" ry="0.78" transform="translate(-21.03 26.64) rotate(-47.81)"/><ellipse class="cls-33" cx="15.67" cy="52.87" rx="0.83" ry="0.78" transform="translate(-34.03 28.97) rotate(-47.81)"/><ellipse class="cls-34" cx="28.05" cy="26.83" rx="0.83" ry="0.78" transform="translate(-10.67 29.6) rotate(-47.81)"/><ellipse class="cls-35" cx="16.05" cy="45.25" rx="1.35" ry="1.28" transform="translate(-28.26 26.76) rotate(-47.81)"/><ellipse class="cls-36" cx="20.82" cy="60.56" rx="1.42" ry="1.24" transform="translate(-37.15 33.33) rotate(-45.87)"/><ellipse class="cls-37" cx="20.82" cy="60.56" rx="0.61" ry="0.64" transform="translate(-21.08 12.12) rotate(-21.89)"/><path class="cls-38" d="M75.77,36.89A6.84,6.84,0,0,1,74,36.66a31.94,31.94,0,0,0,.27-4.06,32.49,32.49,0,0,0-1.09-8.24c.14-.06.25-.13.39-.18L72.49,22A31.41,31.41,0,0,0,55.84,3.71a8.92,8.92,0,0,1-2.73,0C48.57,3,44.23,1.18,39.6,1.21A5.89,5.89,0,0,1,38,1a23.18,23.18,0,0,1-2.74.3c-.14,0-.27,0-.41,0A31.77,31.77,0,0,0,9,32.6c0,.56.06,1.11.08,1.67a29.33,29.33,0,0,1,23.24-27A26.86,26.86,0,0,1,63.44,33.79a26.5,26.5,0,0,1-1.23,7.91,57.89,57.89,0,0,1-3.88,8.44l4.94,1.09a29.42,29.42,0,0,1-9.49,9.57,6.07,6.07,0,0,1,1.12,1.63A32.81,32.81,0,0,0,67.73,52.22l1.52.34L76,36.87Z" transform="translate(0)"/><path class="cls-39" d="M82.37,42.68a18.45,18.45,0,0,0,2.31-2.2c2.29-3-2.13-5.07-3.35-5.65a17.34,17.34,0,0,1-3.5-2.16c-2.69-2.22-2.37-4.37-2.39-6.32C75.36,14,65.54,4.11,52.34,1a37.68,37.68,0,0,0-24,2.23s26.7-8.49,35.77,15a25.62,25.62,0,0,1,1.58,9.29,30.22,30.22,0,0,1-.43,4.88C63.75,47.27,50,60.81,46.71,64c-10.64,10.27-12.4,22.55-4.92,35-.32-1.63-5.28-24.3,17.7-30.3,3-1,6.88-1.21,11-1.59,15.2-1.4,11.35-10.47,11.35-10.47a3.94,3.94,0,0,0,2.07-1.14c2-3.16-.78-4.86-.78-4.86a4.59,4.59,0,0,0,1.31-4.06,2.16,2.16,0,0,0-1.24-1.66c-.83-.27-2.49-.67-1-2.11Z" transform="translate(0)"/><path class="cls-40" d="M41.54,98.35c-6.65-12.08-4.9-24.43,5.26-34.23C53.17,58,64,45.7,65.41,32.41a31.17,31.17,0,0,0,.42-4.89,25.94,25.94,0,0,0-1.58-9.34C59,4.5,47.7,1.63,39.19,1.63a41.41,41.41,0,0,0-8.43.89A37,37,0,0,1,52.09,1.1C64.77,4,75.22,13.38,75.31,26.35v.58c0,1.78,0,3.8,2.44,5.85A17.79,17.79,0,0,0,81.27,35c1,.47,3.45,1.65,3.87,3.36a2.46,2.46,0,0,1-.57,2.09,19.35,19.35,0,0,1-2.28,2.18c-.7.62-.91,1-.82,1.4.13.58.94.83,1.52,1a2,2,0,0,1,1.3,1.61A4.49,4.49,0,0,1,83,50.54c0,.21,1.12.88,1.41,2.12a3.59,3.59,0,0,1-.64,2.76h0a4,4,0,0,1-2,1.09c-.08.2,1.08,3-.52,5.7S76.05,66.45,70.46,67L69,67.1c-3.54.32-7.14.58-9.82,1.43C47.56,71.4,39.82,80.45,40.81,94.05A41.54,41.54,0,0,0,41.54,98.35Z" transform="translate(0)"/><path class="cls-41" d="M65.69,62.32A26.09,26.09,0,0,0,41.52,98.26a42.54,42.54,0,0,1-.71-4.21c-1-13.6,6.75-22.65,18.38-25.52,2.68-.85,6.28-1.11,9.82-1.43L70.46,67a21.65,21.65,0,0,0,7.19-1.73A26,26,0,0,0,65.69,62.32Z" transform="translate(0)"/><path class="cls-42" d="M81.27,35a17.79,17.79,0,0,1-3.52-2.17c-2.48-2.05-2.46-4.07-2.44-5.85v-.58a23,23,0,0,0-.22-2.9c.08,2.44-.51,5.63-5,8a8.42,8.42,0,0,0-3.43,12.42c2.87,3.34,6.43,4.76,11.93.66C82,42,82.33,37.9,83.13,36A15.35,15.35,0,0,0,81.27,35Z" transform="translate(0)"/><path class="cls-43" d="M83.78,55.42a3.59,3.59,0,0,0,.64-2.76c-.29-1.24-1.37-1.91-1.41-2.12a4.49,4.49,0,0,0,1.28-3.94A2,2,0,0,0,83,45c-.58-.18-1.39-.43-1.52-1-.09-.37.12-.78.82-1.4a19.35,19.35,0,0,0,2.28-2.18,2.46,2.46,0,0,0,.57-2.09,3,3,0,0,0-.59-1.11c.33.91.71,3.11-3,3.54-7.37.83-7.82,10.71-15.4,13.44-9.75,3.51-5.06,12.62,2.64,12.32s11-3.44,10.26-6.38,3.66-3.94,3.67-3.95A3.12,3.12,0,0,0,83.78,55.42Z" transform="translate(0)"/><ellipse class="cls-44" cx="8.74" cy="48.32" rx="1.42" ry="1.24" transform="translate(-32.03 20.95) rotate(-45.87)"/><ellipse class="cls-45" cx="8.74" cy="48.32" rx="0.61" ry="0.64" transform="translate(-17.38 6.74) rotate(-21.89)"/></g></g></svg>